<!-- Generator: Adobe Illustrator 18.0.0, SVG Export Plug-In  -->
<svg version="1.1"
     xmlns="http://www.w3.org/2000/svg" xmlns:xlink="http://www.w3.org/1999/xlink" xmlns:a="http://ns.adobe.com/AdobeSVGViewerExtensions/3.0/"
     x="0px" y="0px" width="339.4px" height="150.9px" viewBox="0 0 339.4 150.9" enable-background="new 0 0 339.4 150.9"
     xml:space="preserve">
<defs>
</defs>
<g>
    
        <ellipse transform="matrix(0.6719 0.7407 -0.7407 0.6719 96.0177 -171.397)" fill="#B32017" cx="241.4" cy="22.7" rx="17.7" ry="27.5"/>
    <path fill="#231F20" d="M27.6,105.1H7.4l0,14.3h20.2v6.7H7.4l0,24.1H0l0-51.7h27.6V105.1z"/>
    <path fill="#231F20" d="M68.5,98.4h9l-19.2,24.4l0,27.3h-7.4l0-27.4L31.6,98.4l9,0l13.9,17.8L68.5,98.4z"/>
    <path fill="#231F20" d="M96.4,98.4c10.5,0,17,5.5,17,14.5c0,6-3.1,10.5-8.6,12.7c4.7,3.1,7.6,7.9,11.5,14.3
        c2.2,3.6,3.5,5.3,7.1,10.2h-8.9l-6.8-10.6c-6.8-10.6-9.9-11.8-13.7-11.8h-3.1l0,22.5h-7.4l0-51.7H96.4z M90.7,121h4.8
        c8,0,10.2-4.1,10.2-8.4c-0.1-4.9-3-7.8-10.2-7.8h-4.8L90.7,121z"/>
    <path fill="#231F20" d="M136.5,150.2h-7.4l0-51.7h7.4L136.5,150.2z"/>
    <path fill="#231F20" d="M173.4,109.8c-4.4-4.2-8.6-5.4-12.1-5.4c-4.8,0-8.2,2.5-8.2,6.1c0,9.9,22.4,9.8,22.4,26.2
        c0,8.1-6.1,14-14.5,14c-5.6,0-10.2-1.5-14.5-4.8v-9.4c3.8,4.9,8.6,7.5,13.7,7.5c5.8,0,8.4-3.6,8.4-6.5c0-10.7-22.4-11.9-22.4-26.1
        c0-8.4,6.2-13.8,15.7-13.8c3.9,0,7.9,1.2,11.5,3.6V109.8z"/>
    <path fill="#231F20" d="M228.2,150.2h-7.4l0-22.5l-29,0l0,22.5h-7.4l0-51.7h7.4V121l29,0V98.4h7.4L228.2,150.2z"/>
    <path fill="#231F20" d="M265.1,97.7c17.1,0,27.8,12.1,27.8,26.6c0,14-10.5,26.6-28,26.6c-16.9,0-27.6-12.5-27.6-26.6
        C237.3,110,248.3,97.7,265.1,97.7z M265.1,144c11.6,0,20.2-8.4,20.2-19.7c0-11.4-8.6-19.7-20.2-19.7c-11.5,0-20.1,8.3-20.1,19.7
        C245,135.6,253.6,144,265.1,144z"/>
    <path fill="#231F20" d="M317.4,150.6h-1.5l-22.4-52.2l7.4,0l15.6,36.3L332,98.4h7.4L317.4,150.6z"/>
    <path fill="#5E88A2" d="M42.9,70.7c0,0,17.2-26.6,35-43.9C90.2,15,100.6,11.5,108,8.7c18.2-6.8,40.4,3.7,48.6,7.8
        c18.2,8.7,50.5,40.2,72.5,40.2c40.6-1.5,61.6-43.6,62.2-43.3c0.6,0.3-33.9,56.7-60.1,69.7c-26.2,13-40.6,5.4-59.1-6.1
        c-18.5-11.6-45.8-39.2-73.1-37.6C66.9,38.6,42.9,70.7,42.9,70.7z"/>
</g>
</svg>
